<?xml version="1.0" encoding="utf-8" ?>
<svg xmlns="http://www.w3.org/2000/svg" xmlns:xlink="http://www.w3.org/1999/xlink" width="48" height="48">
	<defs>
		<linearGradient id="gradient_0" gradientUnits="userSpaceOnUse" x1="376.9014" y1="414.83466" x2="128.29973" y2="132.12581">
			<stop offset="0" stop-color="#C9D4E1"/>
			<stop offset="1" stop-color="#F1F2F1"/>
		</linearGradient>
	</defs>
	<path fill="url(#gradient_0)" transform="scale(0.09375 0.09375)" d="M352.239 372.413C351.725 370.775 342.581 362.745 340.482 360.105C327.82 344.181 316.691 307.622 318.491 286.514C304.858 307.484 286.864 313.972 273.919 287.466C269.224 277.853 266.537 263.591 252.257 266.7C238.929 269.601 240.509 299.368 221.381 304.295C210.605 307.07 200.429 297.185 194.807 289.219C190.771 315.609 188.999 337.041 172.438 359.328C169.161 363.738 164.83 369.552 160.079 372.413C156.63 374.175 153.615 376.72 150.07 378.453C123.219 391.581 88.6922 382.539 75.3569 354.774C71.8173 347.404 65.4218 315.484 73.3315 311.682L73.4731 312.037C75.0758 312.29 85.5608 336.655 110.898 335.262C125.309 334.47 136.042 321.316 136.294 307.408C136.562 292.676 130.31 281.622 124.662 268.576C118.265 253.798 114.675 237.785 113.828 221.726C110.915 166.526 134.481 117.959 180.433 87.9015C231.601 54.4319 304.739 59.5153 350.147 100.578C392.62 138.988 409.331 198.436 392.023 253.151C385.369 274.187 374.459 283.574 375.825 308.504C376.677 324.054 388.005 337.807 404.475 336.658C416.322 335.831 426.797 328.47 434.217 319.583C437.038 316.204 440.945 305.943 443.513 315.049C449.281 335.499 442.912 358.722 426.318 372.376C407.9 387.529 383.36 386.803 362.338 377.441C360.18 376.48 354.137 372.195 352.239 372.413ZM198.349 160.349C156.189 164.81 162.485 227.688 204.812 223.494C232.606 219.941 243.35 183.895 220.244 166.389C214.404 161.964 205.682 159.322 198.349 160.349ZM307.999 160.349C266.436 165.53 272.042 226.306 314.219 223.494C359.186 215.147 344.767 155.259 307.999 160.349Z"/>
	<path fill="#314158" transform="scale(0.09375 0.09375)" d="M204.812 223.494C162.485 227.688 156.189 164.81 198.349 160.349C205.682 159.322 214.404 161.964 220.244 166.389C243.35 183.895 232.606 219.941 204.812 223.494Z"/>
	<defs>
		<linearGradient id="gradient_1" gradientUnits="userSpaceOnUse" x1="311.7905" y1="160.45995" x2="309.72412" y2="222.84851">
			<stop offset="0" stop-color="#2D3C53"/>
			<stop offset="1" stop-color="#55657E"/>
		</linearGradient>
	</defs>
	<path fill="url(#gradient_1)" transform="scale(0.09375 0.09375)" d="M314.219 223.494C272.042 226.306 266.436 165.53 307.999 160.349C344.767 155.259 359.186 215.147 314.219 223.494Z"/>
	<defs>
		<linearGradient id="gradient_2" gradientUnits="userSpaceOnUse" x1="341.00937" y1="448.35599" x2="177.74486" y2="310.71783">
			<stop offset="0" stop-color="#97A2B1"/>
			<stop offset="1" stop-color="#B9C2CB"/>
		</linearGradient>
	</defs>
	<path fill="url(#gradient_2)" transform="scale(0.09375 0.09375)" d="M318.491 286.514C316.691 307.622 327.82 344.181 340.482 360.105C342.581 362.745 351.725 370.775 352.239 372.413C352.048 385.869 354.185 421.651 351.73 433.205C347.317 453.971 318.405 451.551 313.749 432.152C310.859 420.115 315.713 400.1 312.029 388.227C308.554 377.026 294.367 373.558 285.846 381.24C272.59 393.189 289.756 422.771 272.586 438.576C262.619 447.75 247.98 447.376 238.881 437.083C226.886 423.513 235.325 403.566 231.494 389.679C228.474 378.732 214.687 374.227 206.069 381.694C193.939 392.205 202.479 416.957 199.265 431.576C194.552 453.01 164.622 453.426 160.594 431.545C159.422 425.18 160.064 415.832 160.074 409.115L160.079 372.413C164.83 369.552 169.161 363.738 172.438 359.328C188.999 337.041 190.771 315.609 194.807 289.219C200.429 297.185 210.605 307.07 221.381 304.295C240.509 299.368 238.929 269.601 252.257 266.7C266.537 263.591 269.224 277.853 273.919 287.466C286.864 313.972 304.858 307.484 318.491 286.514Z"/>
</svg>
