<svg xmlns="http://www.w3.org/2000/svg" version="1.1" xmlns:xlink="http://www.w3.org/1999/xlink" xmlns:svgjs="http://svgjs.dev/svgjs" width="1440" height="560" preserveAspectRatio="none" viewBox="0 0 1440 560"><g mask="url(&quot;#SvgjsMask1134&quot;)" fill="none"><rect width="1440" height="560" x="0" y="0" fill="url(&quot;#SvgjsLinearGradient1135&quot;)"></rect><path d="M1440 0L948.62 0L1440 70.99z" fill="rgba(255, 255, 255, .1)"></path><path d="M948.62 0L1440 70.99L1440 240.08999999999997L437.58 0z" fill="rgba(255, 255, 255, .075)"></path><path d="M437.5799999999999 0L1440 240.08999999999997L1440 383.89L370.3399999999999 0z" fill="rgba(255, 255, 255, .05)"></path><path d="M370.3399999999999 0L1440 383.89L1440 411.88L311.05999999999995 0z" fill="rgba(255, 255, 255, .025)"></path><path d="M0 560L402.96 560L0 532.58z" fill="rgba(0, 0, 0, .1)"></path><path d="M0 532.58L402.96 560L818.01 560L0 327.37z" fill="rgba(0, 0, 0, .075)"></path><path d="M0 327.37L818.01 560L1031.6 560L0 132.97z" fill="rgba(0, 0, 0, .05)"></path><path d="M0 132.97000000000003L1031.6 560L1155.57 560L0 130.38000000000002z" fill="rgba(0, 0, 0, .025)"></path></g><defs><mask id="SvgjsMask1134"><rect width="1440" height="560" fill="#ffffff"></rect></mask><linearGradient x1="15.28%" y1="-39.29%" x2="84.72%" y2="139.29%" gradientUnits="userSpaceOnUse" id="SvgjsLinearGradient1135"><stop stop-color="#0e2a47" offset="0"></stop><stop stop-color="rgba(0, 2, 4, 1)" offset="1"></stop></linearGradient></defs></svg>